<svg xmlns="http://www.w3.org/2000/svg" xmlns:xlink="http://www.w3.org/1999/xlink" viewBox="0 0 1315 759"><defs><linearGradient id="Degradado_sin_nombre_2" x1="657.5" y1="-3599.11" x2="657.5" y2="-2840.11" gradientTransform="matrix(1, 0, 0, -1, 0, -2840.11)" gradientUnits="userSpaceOnUse"><stop offset="0" stop-color="#ffb992"/><stop offset="1" stop-color="#e4590a"/></linearGradient><linearGradient id="Degradado_sin_nombre_2-2" y1="0" y2="759" gradientTransform="matrix(1, 0, 0, 1, 0, 0)" xlink:href="#Degradado_sin_nombre_2"/><mask id="mask" x="0" y="0" width="1315" height="759" maskUnits="userSpaceOnUse"><g id="mask0"><rect width="1315" height="759" rx="46" fill="url(#Degradado_sin_nombre_2)"/></g></mask></defs><g id="Capa_2" data-name="Capa 2"><g id="Capa_1-2" data-name="Capa 1"><rect width="1315" height="759" rx="46" fill="url(#Degradado_sin_nombre_2-2)"/><g mask="url(#mask)"><path d="M1315,345.73V713a46,46,0,0,1-46,46H829.65A375,375,0,0,1,825,700c0-206,167-373,373-373A372.25,372.25,0,0,1,1315,345.73Z" fill="#5f0202" fill-opacity="0.26"/></g><path d="M834.34,437.63q-4.43-5.52-12.79-5.52t-12.83,5.55q-4.44,5.56-4.44,16.28v9.42q.11,10.31,4.54,15.82t12.8,5.52q8.48,0,12.86-5.62t4.4-16.24v-9.43Q838.77,443.12,834.34,437.63Zm-5.62,27q-.08,6-1.72,8.93a5.7,5.7,0,0,1-5.38,2.92,5.87,5.87,0,0,1-5.49-3q-1.68-3.06-1.68-9.32V451.73c.07-3.92.66-6.79,1.79-8.62a6.48,6.48,0,0,1,10.72.14q1.75,2.89,1.76,9.25Zm-34.28-10.12a13,13,0,0,0-10.62-4.78,13.84,13.84,0,0,0-10.3,4.15,14.63,14.63,0,0,1,5-9.67q4.22-3.48,11.11-3.59h1v-8.37H789a26.5,26.5,0,0,0-13.68,3.56,23,23,0,0,0-9,9.87,32.88,32.88,0,0,0-3.13,14.7v3.66q0,9.38,5,15a16.66,16.66,0,0,0,13.08,5.62,17.66,17.66,0,0,0,8.93-2.25,15.38,15.38,0,0,0,6.12-6.29,18.79,18.79,0,0,0,2.18-9Q798.38,459.32,794.44,454.54Zm-8.22,19.4a6.36,6.36,0,0,1-5.28,2.57,6.47,6.47,0,0,1-5.62-2.85q-2-2.88-2-8v-3.09a7.68,7.68,0,0,1,3-3.38,8.06,8.06,0,0,1,4.46-1.3,6.67,6.67,0,0,1,5.49,2.57,12.17,12.17,0,0,1,0,13.46Zm-51.4,1.87,11.63-12.27a42.64,42.64,0,0,0,6.75-9.18,17.09,17.09,0,0,0,2-7.73q0-6.93-4.39-10.72t-12.27-3.8a19.13,19.13,0,0,0-9.25,2.21,15.77,15.77,0,0,0-6.33,6.05,17,17,0,0,0-2.21,8.54h10.19a9.41,9.41,0,0,1,2-6.22,6.75,6.75,0,0,1,5.45-2.39,6.19,6.19,0,0,1,4.92,2,7.74,7.74,0,0,1,1.73,5.34,10.33,10.33,0,0,1-1.66,5.28,39.42,39.42,0,0,1-5,6.5L721.74,477v7h35.08v-8.19Zm-23.07-21.27a13,13,0,0,0-10.61-4.78,13.81,13.81,0,0,0-10.3,4.15,14.57,14.57,0,0,1,5-9.67q4.23-3.48,11.11-3.59h1v-8.37h-1.69a26.5,26.5,0,0,0-13.68,3.56,23.11,23.11,0,0,0-9,9.87,32.88,32.88,0,0,0-3.13,14.7v3.66q0,9.38,5,15a16.64,16.64,0,0,0,13.08,5.62,17.71,17.71,0,0,0,8.93-2.25,15.42,15.42,0,0,0,6.11-6.29,18.68,18.68,0,0,0,2.18-9Q715.69,459.32,711.75,454.54Zm-8.22,19.4a6.36,6.36,0,0,1-5.28,2.57,6.48,6.48,0,0,1-5.62-2.85q-2-2.88-2-8v-3.09a7.68,7.68,0,0,1,3-3.38,8.06,8.06,0,0,1,4.46-1.3,6.65,6.65,0,0,1,5.49,2.57,12.12,12.12,0,0,1,0,13.46Zm-52.35-9.21V432.81H640.91l-21.34,33.72.46,6.4h21V484h10.16V472.93H657v-8.2Zm-10.16,0H629.7l10.65-16.91.67-1.16Zm-62.58-31.92V441H603.9l-19.83,43h10.72l19.79-45.49v-5.7Zm-26.93,43,11.64-12.27a42.64,42.64,0,0,0,6.75-9.18,17.22,17.22,0,0,0,2-7.73q0-6.93-4.4-10.72t-12.27-3.8a19.12,19.12,0,0,0-9.24,2.21,15.77,15.77,0,0,0-6.33,6.05,16.87,16.87,0,0,0-2.22,8.54h10.2a9.41,9.41,0,0,1,2-6.22A6.74,6.74,0,0,1,555,440.3a6.2,6.2,0,0,1,4.92,2,7.74,7.74,0,0,1,1.72,5.34,10.41,10.41,0,0,1-1.65,5.28,39.56,39.56,0,0,1-5,6.5L538.43,477v7h35.09v-8.19Zm-22.15-13.22a14.82,14.82,0,0,0-5.9-5,13.4,13.4,0,0,0,5.13-4.6,12,12,0,0,0,1.86-6.61q0-6.62-4.39-10.44t-11.81-3.87q-7.5,0-11.85,3.9A13.21,13.21,0,0,0,498,446.42a12.1,12.1,0,0,0,1.83,6.61,13.4,13.4,0,0,0,5.13,4.6,14.53,14.53,0,0,0-5.87,4.92A12.8,12.8,0,0,0,497,470a13.4,13.4,0,0,0,4.67,10.76q4.68,4,12.66,4t12.62-3.93a13.46,13.46,0,0,0,4.64-10.8A12.55,12.55,0,0,0,529.36,462.59Zm-19.54-20.53a5.65,5.65,0,0,1,4.43-1.76,5.57,5.57,0,0,1,4.46,1.83,6.93,6.93,0,0,1,1.58,4.78,7.31,7.31,0,0,1-1.58,4.92,5.44,5.44,0,0,1-4.43,1.86,5.53,5.53,0,0,1-4.46-1.86,7.31,7.31,0,0,1-1.59-4.92A7,7,0,0,1,509.82,442.06Zm9.63,32.52a6.84,6.84,0,0,1-5.17,1.93,6.92,6.92,0,0,1-5.27-2,7.36,7.36,0,0,1-1.9-5.28,7.28,7.28,0,0,1,1.93-5.34,7.72,7.72,0,0,1,10.37,0,7.38,7.38,0,0,1,1.94,5.34A7.29,7.29,0,0,1,519.45,474.58Zm-50.27-20a13,13,0,0,0-10.62-4.78,13.82,13.82,0,0,0-10.3,4.15,14.58,14.58,0,0,1,5-9.67q4.21-3.48,11.1-3.59h1v-8.37h-1.69A26.43,26.43,0,0,0,450,435.84a23.07,23.07,0,0,0-9,9.87,32.88,32.88,0,0,0-3.13,14.7v3.66q0,9.38,5,15a16.66,16.66,0,0,0,13.08,5.62,17.71,17.71,0,0,0,8.93-2.25,15.42,15.42,0,0,0,6.11-6.29,18.68,18.68,0,0,0,2.18-9Q473.11,459.32,469.18,454.54ZM461,473.94a6.35,6.35,0,0,1-5.27,2.57,6.49,6.49,0,0,1-5.63-2.85c-1.34-1.92-2-4.58-2-8v-3.09a7.6,7.6,0,0,1,2.95-3.38,8.08,8.08,0,0,1,4.46-1.3,6.65,6.65,0,0,1,5.49,2.57,12.12,12.12,0,0,1,0,13.46Zm-34.56-36.31q-4.42-5.52-12.8-5.52t-12.83,5.55q-4.42,5.56-4.43,16.28v9.42q.1,10.31,4.54,15.82t12.79,5.52q8.47,0,12.87-5.62t4.4-16.24v-9.43Q430.83,443.12,426.39,437.63Zm-5.62,27q-.07,6-1.73,8.93a5.69,5.69,0,0,1-5.38,2.92,5.86,5.86,0,0,1-5.48-3q-1.69-3.06-1.69-9.32V451.73q.11-5.88,1.8-8.62a5.78,5.78,0,0,1,5.3-2.77,5.85,5.85,0,0,1,5.42,2.91q1.75,2.89,1.76,9.25Zm-35.58.07V432.81H374.92l-21.34,33.72.46,6.4h21V484h10.16V472.93H391v-8.2Zm-10.16,0H363.71l10.65-16.91.67-1.16Zm-30.55-9.84q-4.16-4.53-11.46-4.54a16.09,16.09,0,0,0-7.7,1.94l1.26-11h20.36v-8.47H318.25l-2.95,26,8.08,2,1-.91a8.76,8.76,0,0,1,5.87-1.9,7.86,7.86,0,0,1,6.08,2.32c1.43,1.55,2.14,3.77,2.14,6.68s-.62,5.37-1.86,7a6.26,6.26,0,0,1-5.31,2.46,7.12,7.12,0,0,1-5-1.76,7.59,7.59,0,0,1-2.22-5H314a14.48,14.48,0,0,0,2.42,7.77,15.66,15.66,0,0,0,6.29,5.31,20.07,20.07,0,0,0,8.62,1.86,18.82,18.82,0,0,0,9.21-2.14,14.9,14.9,0,0,0,6-6.08,18.62,18.62,0,0,0,2.1-8.9Q348.62,459.42,344.48,454.89Zm-57.8,7.45a12.64,12.64,0,0,0-6.43-4.64,13.86,13.86,0,0,0,5.62-4.53A10.79,10.79,0,0,0,288,446.7q0-6.82-4.61-10.69t-12.73-3.9a20.36,20.36,0,0,0-8.57,1.79,14.53,14.53,0,0,0-6.05,5,12.5,12.5,0,0,0-2.15,7.18h10.16a5.06,5.06,0,0,1,2-4.15,7.45,7.45,0,0,1,4.89-1.62A7.07,7.07,0,0,1,276,442a6.26,6.26,0,0,1,1.87,4.82A7.1,7.1,0,0,1,276,452q-1.86,1.93-5.73,1.94h-5.41v7.94h5.38q8.43,0,8.43,7.67a6.65,6.65,0,0,1-2.07,5.09,9,9,0,0,1-11,.07,5.91,5.91,0,0,1-2.15-4.71H253.28a13.25,13.25,0,0,0,4.85,10.69q4.89,4,12.55,4,8.19,0,13.15-4.11a13.45,13.45,0,0,0,5-10.93A12.53,12.53,0,0,0,286.68,462.34Zm-49.92-29.6-21.2,7.6v8.26l12.13-3.76V484h10.16V432.74Zm-35,4.89q-4.43-5.52-12.79-5.52t-12.84,5.55q-4.43,5.56-4.43,16.28v9.42q.1,10.31,4.54,15.82T189,484.7q8.46,0,12.86-5.62t4.4-16.24v-9.43Q206.18,443.12,201.74,437.63Zm-5.62,27q-.08,6-1.72,8.93a5.71,5.71,0,0,1-5.38,2.92,5.87,5.87,0,0,1-5.49-3c-1.12-2-1.69-5.15-1.69-9.32V451.73q.1-5.88,1.8-8.62a6.48,6.48,0,0,1,10.72.14q1.75,2.89,1.76,9.25Zm-35.58.07V432.81H150.27l-21.34,33.72.46,6.4h21V484h10.16V472.93h5.8v-8.2Zm-10.16,0H139.06l10.65-16.91.67-1.16Z" fill="#fff"/><path d="M1213,593.89q-4.14-4.53-11.46-4.54a16.12,16.12,0,0,0-7.7,1.94l1.27-11h20.35v-8.47h-28.68l-3,26,8.09,2,1-.91a8.78,8.78,0,0,1,5.87-1.9,7.87,7.87,0,0,1,6.09,2.32c1.43,1.55,2.14,3.77,2.14,6.68s-.62,5.37-1.86,7a6.26,6.26,0,0,1-5.31,2.46,7.16,7.16,0,0,1-5-1.76,7.61,7.61,0,0,1-2.21-5h-10.06a14.49,14.49,0,0,0,2.43,7.77,15.53,15.53,0,0,0,6.29,5.31,20.06,20.06,0,0,0,8.61,1.86,18.82,18.82,0,0,0,9.21-2.14,14.78,14.78,0,0,0,6-6.08,18.51,18.51,0,0,0,2.11-8.9C1217.14,601.15,1215.76,596.91,1213,593.89Zm-59,20.92,11.63-12.27a42.64,42.64,0,0,0,6.75-9.18,17.22,17.22,0,0,0,2-7.73q0-6.93-4.39-10.72t-12.27-3.8a19.13,19.13,0,0,0-9.25,2.21,15.77,15.77,0,0,0-6.33,6,17,17,0,0,0-2.21,8.54h10.19a9.41,9.41,0,0,1,2-6.22,6.75,6.75,0,0,1,5.45-2.39,6.2,6.2,0,0,1,4.92,2,7.74,7.74,0,0,1,1.73,5.34,10.43,10.43,0,0,1-1.66,5.28,40,40,0,0,1-5,6.5L1141,616v7H1176v-8.19Zm-43-43-18.84,55.59h7.56l18.84-55.59Zm-50.59-.07-21.2,7.6v8.26l12.13-3.76V623h10.16V571.74Zm-41.34,0-21.2,7.6v8.26l12.13-3.76V623h10.16V571.74Z" fill="#fff"/><path d="M1206.89,513.56a8.47,8.47,0,0,0-4.29-3.09,9.18,9.18,0,0,0,3.75-3,7.19,7.19,0,0,0,1.43-4.31,8.79,8.79,0,0,0-3.07-7.12c-2-1.74-4.87-2.6-8.48-2.6a13.47,13.47,0,0,0-5.72,1.19,9.71,9.71,0,0,0-4,3.33,8.28,8.28,0,0,0-1.43,4.78h6.77a3.41,3.41,0,0,1,1.31-2.77,5,5,0,0,1,3.26-1.07,4.73,4.73,0,0,1,3.38,1.15,4.17,4.17,0,0,1,1.24,3.21,4.76,4.76,0,0,1-1.24,3.42,5.1,5.1,0,0,1-3.82,1.29h-3.61v5.29h3.58c3.75,0,5.63,1.71,5.63,5.11a4.4,4.4,0,0,1-1.39,3.4,5.28,5.28,0,0,1-3.77,1.27,5.36,5.36,0,0,1-3.56-1.22,3.94,3.94,0,0,1-1.43-3.14h-6.78a8.79,8.79,0,0,0,3.24,7.12,12.67,12.67,0,0,0,8.37,2.7,13.31,13.31,0,0,0,8.76-2.74,9,9,0,0,0,3.33-7.29A8.38,8.38,0,0,0,1206.89,513.56Zm-40.29,9,7.76-8.18a29.06,29.06,0,0,0,4.5-6.12,11.53,11.53,0,0,0,1.31-5.15,8.91,8.91,0,0,0-2.93-7.15c-1.94-1.69-4.66-2.53-8.18-2.53a12.75,12.75,0,0,0-6.16,1.47,10.51,10.51,0,0,0-4.22,4,11.32,11.32,0,0,0-1.48,5.7h6.8a6.29,6.29,0,0,1,1.31-4.15,4.5,4.5,0,0,1,3.64-1.59,4.12,4.12,0,0,1,3.28,1.31,5.2,5.2,0,0,1,1.15,3.56,6.9,6.9,0,0,1-1.11,3.52,26.32,26.32,0,0,1-3.35,4.33l-11,11.77V528h23.39v-5.46Zm-20.55-28.71-14.14,5.06v5.51l8.09-2.51V528h6.77V493.83Z" fill="#fff"/><path d="M149.31,607H137l-2.34,7h-7.48l12.71-34.13h6.51L159.16,614h-7.48Zm-10.43-5.7h8.53l-4.29-12.77Zm30.5.71v12h-7V579.87h13.32a15.31,15.31,0,0,1,6.75,1.41,10.35,10.35,0,0,1,4.5,4,11.14,11.14,0,0,1,1.57,5.88,9.79,9.79,0,0,1-3.45,7.92q-3.42,2.89-9.49,2.89Zm0-5.7h6.28A6.15,6.15,0,0,0,179.9,595a4.78,4.78,0,0,0,1.48-3.75,5.66,5.66,0,0,0-1.48-4.06,5.53,5.53,0,0,0-4.08-1.59h-6.44ZM206,601.51h-5.6V614h-7V579.87H206q6,0,9.33,2.7a9.34,9.34,0,0,1,3.28,7.62,10.43,10.43,0,0,1-1.53,5.83,10.29,10.29,0,0,1-4.57,3.71l7.39,13.94V614h-7.55Zm-5.6-5.7H206a5.83,5.83,0,0,0,4.1-1.33,4.87,4.87,0,0,0,1.46-3.73,5.15,5.15,0,0,0-1.39-3.8,5.64,5.64,0,0,0-4.19-1.38h-5.65Zm51.66,1.9a20.58,20.58,0,0,1-1.79,8.84,13.37,13.37,0,0,1-5.11,5.86,15,15,0,0,1-15.16,0,13.6,13.6,0,0,1-5.16-5.81A20.28,20.28,0,0,1,223,597.9v-1.69a20.44,20.44,0,0,1,1.81-8.86,13.57,13.57,0,0,1,5.13-5.88,14.07,14.07,0,0,1,7.59-2.06,13.93,13.93,0,0,1,7.57,2.06,13.4,13.4,0,0,1,5.14,5.88,20.24,20.24,0,0,1,1.83,8.84Zm-7.13-1.55q0-5.35-1.92-8.15A6.79,6.79,0,0,0,232,588q-1.92,2.74-1.94,8.07v1.66c0,3.48.64,6.19,1.92,8.11a6.75,6.75,0,0,0,11,.12c1.26-1.86,1.91-4.57,1.92-8.11Z" fill="#fff"/><circle cx="176" cy="131" r="49" fill="#e1e1e1"/><circle cx="238" cy="131" r="49" fill="#fff"/></g></g></svg>